<!DOCTYPE svg PUBLIC "-//W3C//DTD SVG 20010904//EN" "http://www.w3.org/TR/2001/REC-SVG-20010904/DTD/svg10.dtd">
<svg version="1.0" xmlns="http://www.w3.org/2000/svg" width="200px" height="200px" viewBox="0 0 2000 2000" preserveAspectRatio="xMidYMid meet">
<g id="layer101" fill="#2d1b2e" stroke="none">
<path d="M150 1160 l0 -160 50 0 50 0 0 -105 0 -105 55 0 55 0 0 -110 0 -110 695 0 695 0 0 160 0 160 -55 0 -55 0 0 110 0 110 -55 0 -55 0 0 105 0 105 -690 0 -690 0 0 -160z"/>
</g>
<g id="layer102" fill="#f04156" stroke="none">
<path d="M250 1160 l0 -50 55 0 55 0 0 -110 0 -110 55 0 55 0 0 -105 0 -105 160 0 160 0 0 55 0 55 -55 0 -55 0 0 105 0 105 -55 0 -55 0 0 105 0 105 -160 0 -160 0 0 -50z"/>
</g>
<g id="layer103" fill="#8ae25d" stroke="none">
<path d="M680 1160 l0 -50 55 0 55 0 0 -110 0 -110 50 0 50 0 0 -105 0 -105 160 0 160 0 0 55 0 55 -50 0 -50 0 0 105 0 105 -55 0 -55 0 0 105 0 105 -160 0 -160 0 0 -50z"/>
</g>
<g id="layer104" fill="#3cc2fa" stroke="none">
<path d="M1110 1160 l0 -50 50 0 50 0 0 -110 0 -110 55 0 55 0 0 -105 0 -105 160 0 160 0 0 55 0 55 -55 0 -55 0 0 105 0 105 -50 0 -50 0 0 105 0 105 -160 0 -160 0 0 -50z"/>
</g>


</svg>